<svg width="25" height="24" viewBox="0 0 25 24" fill="none" xmlns="http://www.w3.org/2000/svg">
<mask id="mask0_186_997" style="mask-type:alpha" maskUnits="userSpaceOnUse" x="0" y="0" width="25" height="24">
<rect x="0.290039" width="24" height="24" fill="#D9D9D9"/>
</mask>
<g mask="url(#mask0_186_997)">
<path d="M10.89 16.2L17.94 9.15L16.54 7.75L10.89 13.4L8.04004 10.55L6.64004 11.95L10.89 16.2ZM5.29004 21C4.74004 21 4.26904 20.8043 3.87704 20.413C3.48571 20.021 3.29004 19.55 3.29004 19V5C3.29004 4.45 3.48571 3.979 3.87704 3.587C4.26904 3.19567 4.74004 3 5.29004 3H19.29C19.84 3 20.311 3.19567 20.703 3.587C21.0944 3.979 21.29 4.45 21.29 5V19C21.29 19.55 21.0944 20.021 20.703 20.413C20.311 20.8043 19.84 21 19.29 21H5.29004ZM5.29004 19H19.29V5H5.29004V19Z" fill="#870D78"/>
</g>
</svg>
