<svg width="400" height="400" viewBox="0 0 400 400" fill="none" xmlns="http://www.w3.org/2000/svg">
<circle cx="200.5" cy="199.5" r="199.5" fill="white"/>
<path fill-rule="evenodd" clip-rule="evenodd" d="M229.22 72.1586C223.927 61.3661 212.831 53.9359 200 53.9359C184.833 53.9359 172.091 64.3173 168.491 78.3621L86.1619 300.225L86.3219 300.284C85.4607 303.335 85 306.553 85 309.878C85 329.339 100.776 345.114 120.236 345.114C134.39 345.114 146.595 336.769 152.198 324.73L152.231 324.742L152.398 324.292C153.03 322.884 153.572 321.426 154.018 319.928L197.817 201.895C198.211 201.383 198.97 200.687 200.194 200.687C201.303 200.687 201.904 201.259 202.215 201.747L245.711 318.961C249.717 334.019 263.445 345.114 279.765 345.114C299.225 345.114 315 329.339 315 309.878C315 306.523 314.531 303.277 313.655 300.202L313.885 300.117L231.273 77.4909C230.816 75.8958 230.24 74.3508 229.556 72.8662L229.285 72.1345L229.22 72.1586ZM235.236 309.878C235.236 329.339 219.46 345.114 200 345.114C180.54 345.114 164.764 329.339 164.764 309.878C164.764 290.418 180.54 274.643 200 274.643C219.46 274.643 235.236 290.418 235.236 309.878Z" fill="#8D0F77"/>
</svg>
