<svg width="337" height="427" viewBox="0 0 337 427" fill="none" xmlns="http://www.w3.org/2000/svg">
<path fill-rule="evenodd" clip-rule="evenodd" d="M211.314 26.7002C203.559 10.8868 187.301 0 168.5 0C146.278 0 127.609 15.2093 122.334 35.786L1.702 360.867L1.93686 360.955C0.675095 365.424 0 370.139 0 375.012C0 403.525 23.1146 426.64 51.6279 426.64C72.3667 426.64 90.2494 414.412 98.4595 396.772L98.5076 396.79L98.7501 396.137C99.6783 394.07 100.474 391.93 101.128 389.729L165.302 216.792C165.878 216.042 166.991 215.022 168.784 215.022C170.409 215.022 171.289 215.86 171.745 216.576L235.475 388.318C241.344 410.383 261.46 426.64 285.372 426.64C313.885 426.64 337 403.525 337 375.012C337 370.095 336.313 365.339 335.029 360.834L335.366 360.709L214.323 34.5182C213.653 32.1776 212.808 29.9107 211.804 27.7324L211.408 26.665L211.314 26.7002ZM220.128 375.012C220.128 403.525 197.013 426.64 168.5 426.64C139.987 426.64 116.872 403.525 116.872 375.012C116.872 346.498 139.987 323.384 168.5 323.384C197.013 323.384 220.128 346.498 220.128 375.012Z" fill="white"/>
</svg>
